<?xml version="1.0" encoding="UTF-8"?>
<svg width="45px" height="35px" viewBox="0 0 45 35" version="1.1" xmlns="http://www.w3.org/2000/svg" xmlns:xlink="http://www.w3.org/1999/xlink">
    <title>and-co-woman-planet-and-co</title>
    <g id="Gapstars" stroke="none" stroke-width="1" fill="none" fill-rule="evenodd">
        <g id="Groep-Xtra---Accountant-Xtra-001" transform="translate(-66.000000, -799.000000)" fill="#DACCAF" fill-rule="nonzero">
            <g id="and-co-woman-planet-and-co" transform="translate(66.000000, 799.000000)">
                <path d="M26.7753647,0 C20.096965,0.010365854 14.0081152,3.82511369 11.0853647,9.83 C10.8826628,9.68912946 10.6685909,9.56536919 10.4453647,9.46 C9.56860804,9.05213685 8.59564199,8.89632378 7.63536475,9.01 C6.46383133,9.09451272 5.36096415,9.59452646 4.52536475,10.42 C3.43908046,11.475946 3.00043279,13.0321916 3.37536475,14.5 C3.57901599,15.3382661 3.96103124,16.1227617 4.49536475,16.8 C4.59536475,16.94 4.56536475,16.98 4.43536475,17.04 L3.79536475,17.36 C2.73034508,17.9039429 1.80348649,18.6837354 1.08536475,19.64 C0.179575301,20.9188538 -0.180215103,22.5055295 0.0853647454,24.05 C0.308411628,25.827357 1.27521183,27.4265753 2.74536475,28.45 C4.54121981,29.7540813 6.82192373,30.1970431 8.97536475,29.66 C10.2491896,29.3457766 11.4354497,28.7475187 12.4453647,27.91 C12.5253647,27.85 12.5753647,27.82 12.6253647,27.83 C12.8953647,28.2 13.1853647,28.56 13.4853647,28.9 C13.6053647,29.06 13.8553647,29.28 14.0553647,29.52 C19.5382876,35.3062852 28.2400754,36.6531313 35.2157179,32.7951589 C42.1913604,28.9371865 45.6758411,20.8505616 43.6890158,13.1307129 C41.7021905,5.41086414 34.7467772,0.0111112455 26.7753647,0 Z M31.0053647,3.64 C31.0094826,3.51607811 31.0366104,3.39400267 31.0853647,3.28 C35.0853647,3.83 41.0853647,10.15 41.0853647,13.72 C39.3653647,13.11 39.1453647,13.26 38.9753647,15.18 C38.9753647,15.7 38.8353647,16.18 38.7553647,16.76 C38.3453647,16.76 38.2253647,16.39 38.0253647,16.17 C37.4353647,15.54 36.8653647,14.89 36.2953647,14.23 C36.1367359,13.964384 35.8640973,13.787147 35.5569598,13.7499775 C35.2498224,13.712808 34.9427755,13.819892 34.7253647,14.04 L31.8653647,16.27 C31.609685,16.4219682 31.4349226,16.6798648 31.3885342,16.9736583 C31.3421457,17.2674518 31.4289461,17.5666478 31.6253647,17.79 C31.8753647,18.19 32.1253647,18.59 32.3853647,18.99 C31.7253647,20.48 30.2153647,21.4 29.8053647,22.99 C29.3953647,24.58 28.9953647,25.99 28.5853647,27.57 L25.9953647,28.89 C25.2753647,27.89 24.4053647,27.1 24.1953647,25.89 C23.9853647,24.68 23.7253647,23.58 23.4853647,22.42 C23.4194666,21.8657228 23.0238832,21.406846 22.4853647,21.26 C21.5853647,21.01 20.6953647,20.66 19.7953647,20.41 C19.3242997,20.3188126 18.9516157,19.9578976 18.8453647,19.49 C18.6353647,18.79 18.3453647,18.11 18.0753647,17.36 C18.576006,16.612545 19.1237833,15.8977625 19.7153647,15.22 C20.0321226,15.091964 20.3763993,15.047208 20.7153647,15.09 C23.0453647,15.09 25.3853647,15.09 27.7153647,15.09 C28.3066571,15.1611739 28.8679864,14.8119023 29.0653647,14.25 C29.1093545,14.1535693 29.1594564,14.0600457 29.2153647,13.97 C29.9953647,12.4 29.9753647,12.33 28.4953647,11.33 C27.7153647,10.8 26.8853647,10.33 26.1653647,9.72 C25.4233706,9.11593135 24.410328,8.96627732 23.5253647,9.33 C22.8053647,9.55 22.0553647,9.68 21.2653647,9.86 C21.1653169,9.40543998 21.1653169,8.93456002 21.2653647,8.48 C21.924115,8.1080517 22.6527418,7.87652543 23.4053647,7.8 C24.4053647,7.57 25.1553647,7.19 24.9653647,5.96 C25.6236789,5.6527138 26.3147789,5.42122884 27.0253647,5.27 C27.3885089,5.52076111 27.7092236,5.82797202 27.9753647,6.18 C28.5953647,6.82 28.9753647,6.83 29.6753647,6.28 C30.3753647,5.73 31.2153647,4.86 31.0053647,3.64 Z M22.1553647,3.09 L22.6553647,2.95 L22.9853647,2.86 C23.3353647,2.78 23.6953647,2.71 24.0553647,2.65 C25.6793595,2.33463516 27.3510203,2.35846739 28.9653647,2.72 C29.1237139,3.21169516 29.1444635,3.73735295 29.0253647,4.24 C28.6153647,4.33 28.4953647,3.99 28.3353647,3.79 C27.9919379,3.29654502 27.3531725,3.10574497 26.7953647,3.33 L23.8853647,4.33 C23.1553647,4.53 23.1553647,5.17 23.1553647,5.81 C22.3505638,6.18376205 21.4998488,6.44940032 20.6253647,6.6 C19.6253647,6.91 19.4553647,7.05 19.4253647,8.12 C19.4253647,8.88 19.4253647,9.64 19.3453647,10.4 C19.2853647,11.8 19.7053647,12.15 21.0953647,11.82 L24.6753647,10.95 L27.6053647,12.95 C27.3353647,13.36 27.0153647,13.25 26.7453647,13.25 C24.4653647,13.25 22.1753647,13.25 19.8953647,13.25 C19.285229,13.2006481 18.6936534,13.473683 18.3353647,13.97 C17.7353647,14.77 17.1053647,15.54 16.4753647,16.31 C16.0905793,16.6704437 15.9638672,17.2287687 16.1553647,17.72 L16.5453647,18.83 L14.9553647,18.83 L14.9553647,18.83 L14.7253647,18.83 C14.5253647,18.83 14.4453647,18.88 14.4153647,19.08 C14.2165712,20.2324919 13.880861,21.3571209 13.4153647,22.43 C13.2653647,22.77 13.0953647,23.1 12.9153647,23.43 L12.3553647,22.72 L8.98536475,18.16 C8.82536475,17.95 8.83536475,17.95 9.08536475,17.85 C9.86417531,17.569358 10.6035926,17.1895664 11.2853647,16.72 C12.5751151,15.8708167 13.2480313,14.3450185 13.0053647,12.82 C12.9538653,12.5098573 12.8735165,12.2052014 12.7653647,11.91 C14.427204,7.71936032 17.8689946,4.48649628 22.1553647,3.09 L22.1553647,3.09 Z M6.52536475,12.15 C6.83164249,11.7876884 7.26418115,11.555333 7.73536475,11.5 C7.89772926,11.4748412 8.06300023,11.4748412 8.22536475,11.5 C8.79434448,11.4717609 9.35144243,11.6694409 9.77536475,12.05 C10.3373079,12.6690563 10.4112443,13.5891543 9.95536475,14.29 C9.57756129,14.7847217 9.08737234,15.1823575 8.52536475,15.45 C8.18536475,15.64 7.82536475,15.79 7.52536475,15.96 C7.44536475,15.96 7.37536475,16.03 7.31536475,15.96 C6.86493726,15.3495052 6.50770458,14.6754813 6.25536475,13.96 C6.03165844,13.3500141 6.13337423,12.6681416 6.52536475,12.15 L6.52536475,12.15 Z M11.3253647,25.94 C10.5677562,26.6232032 9.66514264,27.1257948 8.68536475,27.41 C8.23964871,27.5635007 7.7756607,27.6576432 7.30536475,27.69 C6.26808605,27.7246123 5.24958466,27.407432 4.41536475,26.79 C3.49974034,26.1764198 2.81933442,25.2703871 2.48536475,24.22 C2.3767803,23.8981216 2.32599772,23.5595711 2.33536475,23.22 C2.32651664,21.9610375 2.95001552,20.781648 3.99536475,20.08 C4.65256661,19.6461181 5.34113307,19.2617242 6.05536475,18.93 C6.20536475,18.85 6.25536475,18.93 6.31536475,19.04 L8.42536475,21.82 L11.1553647,25.39 C11.2253647,25.54 11.3153647,25.68 11.3853647,25.83 C11.3754579,25.8713327 11.3547523,25.9092931 11.3253647,25.94 L11.3253647,25.94 Z M39.3853647,25.84 C39.358369,25.8777482 39.3349352,25.9179204 39.3153647,25.96 C36.9953938,29.4038398 33.3588312,31.7394955 29.2620782,32.4169262 C25.1653252,33.094357 20.9704608,32.0536901 17.6653647,29.54 C17.6653647,29.54 17.5953647,29.54 17.6153647,29.54 C16.3571141,28.5204952 15.3338022,27.2413554 14.6153647,25.79 C14.579912,25.7560474 14.5598637,25.7090884 14.5598637,25.66 C14.5598637,25.6109116 14.579912,25.5639526 14.6153647,25.53 C15.0007729,25.0274834 15.3357247,24.4882111 15.6153647,23.92 C15.9735555,23.1487358 16.2678758,22.3493887 16.4953647,21.53 C16.5068364,21.4737346 16.5389401,21.4237955 16.5853647,21.39 L17.6353647,21.39 C17.8376821,21.6617925 18.1271321,21.8559358 18.4553647,21.94 C19.5553647,22.26 20.6353647,22.64 21.7053647,22.94 C21.8995409,23.7074796 22.0497848,24.4854096 22.1553647,25.27 C22.3526999,26.7794937 22.9693799,28.2034008 23.9353647,29.38 C25.5153647,31.49 25.1953647,31.15 27.4353647,30.29 C29.4520522,29.6504601 30.8644793,27.8322089 30.9853647,25.72 C31.3261871,23.7727353 32.242179,21.9720972 33.6153647,20.55 C34.6853647,19.25 34.6153647,19.22 33.7853647,17.75 C33.7253647,17.64 33.6753647,17.52 33.5853647,17.34 C34.1049578,16.7999984 34.6894023,16.3263969 35.3253647,15.93 L37.7953647,18.72 C38.1059782,19.0753042 38.4400605,19.4093865 38.7953647,19.72 C39.0213556,19.9950783 39.3921366,20.1047152 39.7313834,19.996773 C40.0706303,19.8888309 40.3098828,19.5850924 40.3353647,19.23 C40.4653647,18.62 40.5153647,17.99 40.5853647,17.36 C40.6144657,16.8918088 40.698372,16.4286456 40.8353647,15.98 C41.7153647,16.13 41.8353647,16.76 41.8353647,17.41 C41.8722229,20.0564406 41.2246241,22.6675041 39.9553647,24.99 C39.7153647,25.32 39.5553647,25.58 39.3853647,25.84 L39.3853647,25.84 Z" id="Shape"></path>
            </g>
        </g>
    </g>
</svg>