<svg id="Laag_1" data-name="Laag 1" xmlns="http://www.w3.org/2000/svg" viewBox="0 0 300 122.02"><defs><style>.cls-1{fill:#1d1d1b;}.cls-2{fill:#010101;}</style></defs><path class="cls-1" d="M14.8,49.36V24.71H7.36V19.1H27.93v5.61H20.49V49.36Z" transform="translate(-5 -2.03)"/><path class="cls-1" d="M50.54,49.36,39.78,34.57H37.36V49.36H31.83V19.1H42.67a7.86,7.86,0,0,1,7.74,7.74,7.86,7.86,0,0,1-4.42,7L57.25,49.36ZM42.67,29.05a2.21,2.21,0,0,0,0-4.42H37.36v4.42Z" transform="translate(-5 -2.03)"/><path class="cls-1" d="M66.56,49.36,54.87,19.1H61l8.12,21.12L77.27,19.1h6.07L71.7,49.36Z" transform="translate(-5 -2.03)"/><path class="cls-1" d="M87.38,49.36V19.1h5.69V43.79H108.5v5.57Z" transform="translate(-5 -2.03)"/><path class="cls-2" d="M9.52,9.8a1.59,1.59,0,0,1-.28.93,1.91,1.91,0,0,1-.79.65,2.64,2.64,0,0,1-1.06.22,4.07,4.07,0,0,1-.61-.06A3.94,3.94,0,0,1,5,10.68l.7-.76a2.56,2.56,0,0,0,1.63.7A1.74,1.74,0,0,0,8,10.47a.74.74,0,0,0,.47-.67c0-.4-.35-.65-1.16-.79A8.2,8.2,0,0,1,6,8.61a1.52,1.52,0,0,1-.83-1.39,1.65,1.65,0,0,1,.28-.91,1.85,1.85,0,0,1,.74-.57,2.47,2.47,0,0,1,1-.22l.44,0a3.36,3.36,0,0,1,1.59.71L8.55,7a2.22,2.22,0,0,0-1.33-.52,1.44,1.44,0,0,0-.64.13.71.71,0,0,0-.42.6c0,.39.31.6,1.1.76a8.32,8.32,0,0,1,1.37.41,1.59,1.59,0,0,1,.62.5A1.57,1.57,0,0,1,9.52,9.8Z" transform="translate(-5 -2.03)"/><path class="cls-2" d="M14.64,9V5.61h1.11V9A1.64,1.64,0,0,0,19,9V5.61h1.11V9a2.62,2.62,0,0,1-.81,1.9,2.83,2.83,0,0,1-3.88,0A2.61,2.61,0,0,1,14.64,9Z" transform="translate(-5 -2.03)"/><path class="cls-2" d="M29.72,9.8a1.53,1.53,0,0,1-.29.93,1.91,1.91,0,0,1-.79.65,2.64,2.64,0,0,1-1.06.22,4.2,4.2,0,0,1-.61-.06,3.94,3.94,0,0,1-1.78-.86l.7-.76a2.56,2.56,0,0,0,1.64.7,1.69,1.69,0,0,0,.68-.15.74.74,0,0,0,.47-.67c0-.4-.35-.65-1.15-.79a8,8,0,0,1-1.39-.4,1.54,1.54,0,0,1-.83-1.39,1.59,1.59,0,0,1,.29-.91,1.81,1.81,0,0,1,.73-.57,2.5,2.5,0,0,1,1-.22,3.25,3.25,0,0,1,.44,0,3.32,3.32,0,0,1,1.59.71L28.75,7a2.24,2.24,0,0,0-1.34-.52,1.5,1.5,0,0,0-.64.13.73.73,0,0,0-.42.6c0,.39.31.6,1.1.76a8.32,8.32,0,0,1,1.37.41,1.59,1.59,0,0,1,.62.5A1.51,1.51,0,0,1,29.72,9.8Z" transform="translate(-5 -2.03)"/><path class="cls-2" d="M35.15,9.58V6.67h-.88V5.61h.88V3.32h1.12V5.61H38.1V6.67H36.27V9.55a1,1,0,0,0,.88.94h1l.28,1.06H37.12A2,2,0,0,1,35.15,9.58Z" transform="translate(-5 -2.03)"/><path class="cls-2" d="M47.8,5.61h1.11v5.94H47.8v-.69a3.19,3.19,0,0,1-2,.82,3.1,3.1,0,1,1,0-6.2,3.19,3.19,0,0,1,2,.82Zm0,3a2,2,0,1,0-2,2A2,2,0,0,0,47.8,8.58Z" transform="translate(-5 -2.03)"/><path class="cls-2" d="M54.37,3.91a.74.74,0,0,1,1.47,0,.74.74,0,1,1-1.47,0Zm.18,1.7h1.12v5.94H54.55Z" transform="translate(-5 -2.03)"/><path class="cls-2" d="M67.25,8.36v3.19H66.13V8.36a1.75,1.75,0,1,0-3.5,0v3.19H61.52V5.61h1.11v.57a3,3,0,0,1,1.75-.69,2.83,2.83,0,0,1,2.87,2.87Z" transform="translate(-5 -2.03)"/><path class="cls-2" d="M77.26,5.61h1.11v5.94H77.26v-.69a3.19,3.19,0,0,1-2,.82,3.1,3.1,0,1,1,0-6.2,3.19,3.19,0,0,1,2,.82Zm0,3a2,2,0,1,0-2,2A2,2,0,0,0,77.26,8.58Z" transform="translate(-5 -2.03)"/><path class="cls-2" d="M90,8.58a3.1,3.1,0,0,1-.92,2.2,3,3,0,0,1-2.19.9,3.19,3.19,0,0,1-2-.82v.69H83.75V2h1.11V6.3a3.19,3.19,0,0,1,2-.82,3,3,0,0,1,2.19.9A3.1,3.1,0,0,1,90,8.58Zm-1.12,0a2,2,0,1,0-2,2A2,2,0,0,0,88.85,8.58Z" transform="translate(-5 -2.03)"/><path class="cls-2" d="M95,11.55V2h1.12v9.52Z" transform="translate(-5 -2.03)"/><path class="cls-2" d="M106.91,8.85h-4.58v0a1.9,1.9,0,0,0,1.72,1.74,2.26,2.26,0,0,0,1.46-.63l.93.56a3.17,3.17,0,0,1-2.36,1.1,2.66,2.66,0,0,1-2-.9,3.05,3.05,0,0,1-.8-1.87,1.23,1.23,0,0,1,0-.27,3.27,3.27,0,0,1,.08-.7,3.15,3.15,0,0,1,.74-1.44,2.71,2.71,0,0,1,4,0,2.89,2.89,0,0,1,.74,1.44A3.84,3.84,0,0,1,106.91,8.85Zm-1.17-.93v0a1.8,1.8,0,0,0-1.65-1.28,1.84,1.84,0,0,0-1.65,1.28v0Z" transform="translate(-5 -2.03)"/><path class="cls-1" d="M62.47,61.85A25.13,25.13,0,0,0,39.92,76a7.28,7.28,0,0,0-.91-.54,7.69,7.69,0,0,0-4-.65,7.11,7.11,0,0,0-4.46,2,6.07,6.07,0,0,0-1.65,5.86A8.69,8.69,0,0,0,30.46,86c.14.2.1.27-.09.35s-.62.3-.92.46a11.17,11.17,0,0,0-3.89,3.27,8.48,8.48,0,0,0-1.4,6.33A9.06,9.06,0,0,0,28,102.73a10.87,10.87,0,0,0,9,1.74,12.5,12.5,0,0,0,5-2.53.34.34,0,0,1,.25-.1c.39.53.8,1,1.23,1.54.17.22.53.54.83.89a25.45,25.45,0,0,0,3.86,3.31A25.13,25.13,0,1,0,62.47,61.85Zm6.07,5.23c0-.16.08-.34.12-.51,5.77.79,14.41,9.86,14.33,15-2.47-.87-2.77-.65-3,2.11-.07.74-.2,1.48-.31,2.27-.59-.07-.76-.54-1.05-.85-.84-.91-1.66-1.85-2.48-2.79A1.46,1.46,0,0,0,73.86,82c-1.37,1.07-2.75,2.13-4.11,3.2a1.47,1.47,0,0,0-.35,2.18c.37.57.73,1.15,1.1,1.73-1,2.14-3.12,3.45-3.71,5.77s-1.16,4.36-1.75,6.58l-3.72,1.9c-1-1.41-2.28-2.57-2.59-4.35s-.67-3.33-1-5a2,2,0,0,0-1.48-1.66c-1.31-.37-2.57-.86-3.88-1.22A1.77,1.77,0,0,1,51,89.84c-.3-1-.72-2-1.12-3.06a30,30,0,0,1,2.37-3.07,3,3,0,0,1,1.45-.2c3.36,0,6.72,0,10.07,0a1.85,1.85,0,0,0,2-1.21,3,3,0,0,1,.2-.4c1.13-2.26,1.1-2.36-1-3.8-1.12-.76-2.31-1.44-3.35-2.3a3.71,3.71,0,0,0-3.79-.57c-1,.31-2.11.5-3.25.77a4.61,4.61,0,0,1,0-2,8,8,0,0,1,3.08-1c1.45-.33,2.51-.88,2.24-2.64a13.42,13.42,0,0,1,3-1,5.93,5.93,0,0,1,1.37,1.31c.88.91,1.42.93,2.43.14C67.82,69.89,68.84,68.84,68.54,67.08Zm-12.67-.79.7-.2.48-.12c.5-.12,1-.23,1.54-.31a17.34,17.34,0,0,1,7,.1A4.1,4.1,0,0,1,65.69,68c-.58.12-.75-.36-1-.64a1.85,1.85,0,0,0-2.21-.68c-1.39.46-2.79.94-4.18,1.39-1.06.35-1,1.26-1.12,2.19a14.41,14.41,0,0,1-3.63,1.12c-1.48.45-1.7.65-1.73,2.19,0,1.09-.07,2.19-.12,3.28-.08,2,.53,2.51,2.52,2l5.14-1.24,4.21,2.85c-.39.6-.85.43-1.23.43-3.28,0-6.57,0-9.85,0a2.5,2.5,0,0,0-2.24,1c-.85,1.15-1.76,2.27-2.67,3.37a1.88,1.88,0,0,0-.34,2c.2.53.38,1.06.57,1.59H45.48v0h-.33c-.27,0-.39.08-.44.37a21.16,21.16,0,0,1-1.44,4.81c-.22.49-.48,1-.73,1.48-.29-.38-.54-.73-.79-1.07l-4.84-6.54c-.23-.31-.22-.31.14-.45a13.47,13.47,0,0,0,3.16-1.67,5.62,5.62,0,0,0,2.47-5.6,5.91,5.91,0,0,0-.35-1.3A21.77,21.77,0,0,1,55.87,66.29Zm-22.49,13a2.62,2.62,0,0,1,1.73-.93,2.85,2.85,0,0,1,.71-.07,3.14,3.14,0,0,1,2.22.8,2.64,2.64,0,0,1,.27,3.22A5.61,5.61,0,0,1,36.25,84c-.5.27-1,.5-1.51.74-.11,0-.21.1-.3,0a10.89,10.89,0,0,1-1.52-2.88A2.74,2.74,0,0,1,33.38,79.31Zm6.89,19.8a9.37,9.37,0,0,1-3.79,2.12,7.91,7.91,0,0,1-2,.4,6.63,6.63,0,0,1-4.16-1.29,7.07,7.07,0,0,1-2.77-3.68,4.27,4.27,0,0,1-.21-1.46,5.34,5.34,0,0,1,2.38-4.51,22.49,22.49,0,0,1,3-1.64c.22-.11.28,0,.38.16l3,4L40,98.33c.1.22.22.42.33.63A.24.24,0,0,1,40.27,99.11ZM80.58,99l-.1.17a21.69,21.69,0,0,1-31.11,5.15s-.09-.07-.06-.07A16,16,0,0,1,45,98.85a.25.25,0,0,1,0-.37,13.88,13.88,0,0,0,1.39-2.31,23.62,23.62,0,0,0,1.26-3.44.36.36,0,0,1,.12-.2h1.52a2.08,2.08,0,0,0,1.17.79c1.58.46,3.13,1,4.67,1.51a27.56,27.56,0,0,1,.75,3.31,11.61,11.61,0,0,0,2.56,5.92c2.26,3,1.8,2.54,5,1.3a7.34,7.34,0,0,0,5.07-6.56c.34-2.94,2-5.22,3.77-7.42,1.55-1.87,1.5-1.91.25-4-.09-.16-.16-.33-.28-.59a13.23,13.23,0,0,1,2.49-2l3.55,4a16.35,16.35,0,0,0,1.38,1.5,1.25,1.25,0,0,0,2.21-.71,26.75,26.75,0,0,0,.36-2.69,8,8,0,0,1,.37-2C83.87,85.12,84,86,84,87a22.23,22.23,0,0,1-2.7,10.89C81.05,98.22,80.83,98.61,80.58,99Z" transform="translate(-5 -2.03)"/><path class="cls-2" d="M223.45,41.47v2.91h-1V41.47a1.6,1.6,0,1,0-3.2,0v2.91h-1V39h1v.52a2.67,2.67,0,0,1,1.6-.63,2.56,2.56,0,0,1,1.85.76A2.61,2.61,0,0,1,223.45,41.47Z" transform="translate(-5 -2.03)"/><path class="cls-2" d="M233.55,41.67a2.85,2.85,0,0,1-2.84,2.84,2.84,2.84,0,1,1,0-5.67,2.83,2.83,0,0,1,2,.81A2.86,2.86,0,0,1,233.55,41.67Zm-1,0a1.83,1.83,0,1,0-1.82,1.82A1.81,1.81,0,0,0,232.53,41.67Z" transform="translate(-5 -2.03)"/><path class="cls-2" d="M243.37,41.47v2.91h-1V41.47a1.6,1.6,0,1,0-3.2,0v2.91h-1V39h1v.52a2.7,2.7,0,0,1,1.6-.63,2.6,2.6,0,0,1,1.86.76A2.65,2.65,0,0,1,243.37,41.47Z" transform="translate(-5 -2.03)"/><path class="cls-2" d="M254.52,37.41a.67.67,0,1,1,.67.67A.67.67,0,0,1,254.52,37.41Zm.17,1.55h1v5.42h-1Z" transform="translate(-5 -2.03)"/><path class="cls-2" d="M261.92,39.51a3.31,3.31,0,0,1,2-.67l-.25,1a1.68,1.68,0,0,0-1.73,1.63v2.89h-1V39h1Z" transform="translate(-5 -2.03)"/><path class="cls-2" d="M273.47,41.67a2.82,2.82,0,1,1-.84-2A2.86,2.86,0,0,1,273.47,41.67Zm-1,0a1.82,1.82,0,1,0-1.82,1.82A1.81,1.81,0,0,0,272.45,41.67Z" transform="translate(-5 -2.03)"/><path class="cls-2" d="M283.29,41.47v2.91h-1V41.47a1.6,1.6,0,1,0-3.19,0v2.91h-1V39h1v.52a2.64,2.64,0,0,1,1.59-.63,2.6,2.6,0,0,1,2.62,2.62Z" transform="translate(-5 -2.03)"/><path class="cls-2" d="M207.15,44c0-.2,0-.2-.2-.2h-2a.21.21,0,0,1-.19-.07c-.22-.29-.45-.58-.68-.86a.14.14,0,0,1,0-.2,6.57,6.57,0,0,0,.73-1.22,12.1,12.1,0,0,0,.68-1.82.2.2,0,0,1,.06-.11h.82l.12,0h0s.06-.08.06-.17c0-.52,0-1,0-1.56,0-.19,0-.19-.21-.2h-2v0h-.18c-.14,0-.21,0-.23.19a11.37,11.37,0,0,1-.77,2.55c-.11.26-.25.51-.38.78l-.42-.56-2.56-3.47c-.12-.16-.12-.16.07-.23a7.51,7.51,0,0,0,1.68-.89,3,3,0,0,0,1.3-3,3.13,3.13,0,0,0-1.94-2.52,4,4,0,0,0-2.14-.35,3.78,3.78,0,0,0-2.36,1.08,3.23,3.23,0,0,0-.88,3.11,4.58,4.58,0,0,0,.86,1.74c.07.11.05.14,0,.19a4.44,4.44,0,0,0-.49.24,6,6,0,0,0-2.06,1.73,4.48,4.48,0,0,0-.74,3.35,4.81,4.81,0,0,0,2,3.35,5.75,5.75,0,0,0,4.74.92,6.6,6.6,0,0,0,2.64-1.33c.11-.09.17-.08.25,0,.26.37.54.72.81,1.09a.27.27,0,0,0,.24.12H207c.16,0,.19-.05.19-.2C207.14,45,207.15,44.51,207.15,44Zm-9.22-11.48a1.42,1.42,0,0,1,.92-.49,1.16,1.16,0,0,1,.37,0,1.65,1.65,0,0,1,1.18.42,1.4,1.4,0,0,1,.14,1.71,3,3,0,0,1-1.09.87c-.26.14-.53.26-.8.39-.06,0-.11,0-.16,0a5.66,5.66,0,0,1-.8-1.52A1.45,1.45,0,0,1,197.93,32.51ZM201.58,43a5.06,5.06,0,0,1-2,1.12,4.18,4.18,0,0,1-1,.21,3.55,3.55,0,0,1-2.21-.68,3.74,3.74,0,0,1-1.46-1.95,2.27,2.27,0,0,1-.12-.78A2.84,2.84,0,0,1,196,38.54a12,12,0,0,1,1.57-.87c.12-.06.15,0,.2.09.54.7,1.07,1.4,1.6,2.11l2.22,2.9C201.67,42.87,201.66,42.92,201.58,43Z" transform="translate(-5 -2.03)"/><path class="cls-2" d="M222.65,64.64h1v8.52h-1V69.43a2.74,2.74,0,0,1-3.84-.07,2.85,2.85,0,0,1,0-4,2.74,2.74,0,0,1,3.84-.07Zm0,2.71a1.83,1.83,0,1,0-1.82,1.83A1.84,1.84,0,0,0,222.65,67.35Z" transform="translate(-5 -2.03)"/><path class="cls-2" d="M228.6,67.74v-3.1h1v3.1a1.49,1.49,0,0,0,3,0v-3.1h1v3.1a2.44,2.44,0,0,1-.75,1.74,2.5,2.5,0,0,1-1.76.7,2.53,2.53,0,0,1-1.78-.7A2.42,2.42,0,0,1,228.6,67.74Z" transform="translate(-5 -2.03)"/><path class="cls-2" d="M238.66,63.09a.67.67,0,0,1,1.33,0,.67.67,0,1,1-1.33,0Zm.16,1.55h1v5.42h-1Z" transform="translate(-5 -2.03)"/><path class="cls-2" d="M249.71,69a3.31,3.31,0,0,1-.3.34,2.86,2.86,0,0,1-4,0,2.83,2.83,0,0,1,2-4.84,2.8,2.8,0,0,1,2,.82,2.13,2.13,0,0,1,.28.33l-.81.6a1.86,1.86,0,0,0-1.47-.75,1.83,1.83,0,1,0,1.47,2.9Z" transform="translate(-5 -2.03)"/><path class="cls-2" d="M259.46,70.06h-1.28l-2-2.74-.94.87v1.87h-1V61.38h1v5.45l2.36-2.19h1.45l-2.1,2Z" transform="translate(-5 -2.03)"/><path class="cls-2" d="M274.46,61.38h1v8.68h-1v-.63a2.83,2.83,0,1,1,0-4.16Zm0,6a1.82,1.82,0,1,0-1.82,1.83A1.83,1.83,0,0,0,274.46,67.35Z" transform="translate(-5 -2.03)"/><path class="cls-2" d="M281.54,65.2a3.3,3.3,0,0,1,2-.68l-.25,1a1.68,1.68,0,0,0-1.73,1.63v2.89h-1V64.64h1Z" transform="translate(-5 -2.03)"/><path class="cls-2" d="M289.78,73.16h-1.1l1.27-3.1-2.2-5.42h1.1l1.65,4.07,1.64-4.07h1.1Z" transform="translate(-5 -2.03)"/><path class="cls-2" d="M207.15,69.67c0-.2,0-.2-.2-.2h-2a.21.21,0,0,1-.19-.07c-.22-.29-.45-.58-.68-.86a.14.14,0,0,1,0-.2,6.57,6.57,0,0,0,.73-1.22,12.1,12.1,0,0,0,.68-1.82.14.14,0,0,1,.06-.1h.82l.12,0h0s.06-.08.06-.17c0-.52,0-1,0-1.55,0-.2,0-.2-.21-.2h-2.18c-.14,0-.21,0-.23.19a11.37,11.37,0,0,1-.77,2.55c-.11.26-.25.51-.38.78l-.42-.56-2.56-3.47c-.12-.16-.12-.16.07-.23a7.12,7.12,0,0,0,1.68-.89,3,3,0,0,0,1.3-3,3.13,3.13,0,0,0-1.94-2.52,3.93,3.93,0,0,0-2.14-.34,3.72,3.72,0,0,0-2.36,1.07,3.23,3.23,0,0,0-.88,3.11,4.58,4.58,0,0,0,.86,1.74c.07.11.05.14,0,.19a4.44,4.44,0,0,0-.49.24,6,6,0,0,0-2.06,1.73,4.48,4.48,0,0,0-.74,3.35,4.79,4.79,0,0,0,2,3.35,5.75,5.75,0,0,0,4.74.93,6.75,6.75,0,0,0,2.64-1.34c.11-.09.17-.08.25,0,.26.37.54.73.81,1.09a.27.27,0,0,0,.24.12H207c.16,0,.19,0,.19-.2C207.14,70.7,207.15,70.19,207.15,69.67ZM197.93,58.2a1.39,1.39,0,0,1,.92-.5,1.16,1.16,0,0,1,.37,0,1.65,1.65,0,0,1,1.18.42,1.4,1.4,0,0,1,.14,1.71,3,3,0,0,1-1.09.87c-.26.15-.53.27-.8.4-.06,0-.11,0-.16,0a5.66,5.66,0,0,1-.8-1.52A1.43,1.43,0,0,1,197.93,58.2Zm3.65,10.48a4.94,4.94,0,0,1-2,1.12,4.18,4.18,0,0,1-1,.21,3.55,3.55,0,0,1-2.21-.68,3.74,3.74,0,0,1-1.46-2,2.25,2.25,0,0,1-.12-.77A2.85,2.85,0,0,1,196,64.22a12,12,0,0,1,1.57-.87c.12-.06.15,0,.2.09.54.7,1.07,1.4,1.6,2.11l2.22,2.9C201.67,68.55,201.66,68.6,201.58,68.68Z" transform="translate(-5 -2.03)"/><path class="cls-2" d="M224.06,92.56a2.82,2.82,0,0,1-2.84,2.82,3,3,0,0,1-1.83-.74v.62h-1V86.58h1v3.89a3,3,0,0,1,1.83-.74,2.83,2.83,0,0,1,2,.81A2.86,2.86,0,0,1,224.06,92.56Zm-1,0a1.83,1.83,0,1,0-1.82,1.83A1.84,1.84,0,0,0,223,92.56Z" transform="translate(-5 -2.03)"/><path class="cls-2" d="M229.78,90.4a3.31,3.31,0,0,1,2-.67l-.25,1a1.69,1.69,0,0,0-1.73,1.64v2.88h-1V89.85h1Z" transform="translate(-5 -2.03)"/><path class="cls-2" d="M240.77,92.8H236.6v0a1.7,1.7,0,0,0,1.57,1.58,2,2,0,0,0,1.32-.56l.86.5a3.48,3.48,0,0,1-.72.61,3.08,3.08,0,0,1-1.44.4,2.42,2.42,0,0,1-1.83-.83,2.71,2.71,0,0,1-.73-1.7,1.1,1.1,0,0,1,0-.25,3.48,3.48,0,0,1,.07-.64,2.84,2.84,0,0,1,.68-1.31,2.48,2.48,0,0,1,1.83-.82,2.52,2.52,0,0,1,1.85.82,2.65,2.65,0,0,1,.67,1.31A3,3,0,0,1,240.77,92.8ZM239.71,92v0a1.64,1.64,0,0,0-1.51-1.17,1.66,1.66,0,0,0-1.5,1.17v0Z" transform="translate(-5 -2.03)"/><path class="cls-2" d="M249.74,89.85h1v5.41h-1v-.62a3,3,0,0,1-1.82.74,2.84,2.84,0,0,1-2-.81,2.86,2.86,0,0,1,0-4,2.84,2.84,0,0,1,2-.81,3,3,0,0,1,1.82.74Zm0,2.71a1.82,1.82,0,1,0-1.82,1.83A1.84,1.84,0,0,0,249.74,92.56Z" transform="translate(-5 -2.03)"/><path class="cls-2" d="M256.15,93.47V90.82h-.8v-1h.8v-2.1h1v2.1h1.67v1h-1.67v2.62a.87.87,0,0,0,.81.86h.91l.26,1H258A1.79,1.79,0,0,1,256.15,93.47Z" transform="translate(-5 -2.03)"/><path class="cls-2" d="M268.76,92.35v2.91h-1V92.35a1.6,1.6,0,1,0-3.2,0v2.91h-1V86.58h1v3.79a2.67,2.67,0,0,1,1.6-.63,2.58,2.58,0,0,1,2.61,2.61Z" transform="translate(-5 -2.03)"/><path class="cls-2" d="M277.91,89.85h1v5.41h-1v-.62a3,3,0,0,1-1.82.74,2.84,2.84,0,0,1-2-.81,2.86,2.86,0,0,1,0-4,2.84,2.84,0,0,1,2-.81,3,3,0,0,1,1.82.74Zm0,2.71a1.82,1.82,0,1,0-1.82,1.83A1.84,1.84,0,0,0,277.91,92.56Z" transform="translate(-5 -2.03)"/><path class="cls-2" d="M289.52,92.56a2.86,2.86,0,0,1-.84,2,2.8,2.8,0,0,1-2,.81,2.92,2.92,0,0,1-1.82-.74v.62h-1V86.58h1v3.89a2.92,2.92,0,0,1,1.82-.74,2.8,2.8,0,0,1,2,.81A2.86,2.86,0,0,1,289.52,92.56Zm-1,0a1.82,1.82,0,1,0-1.82,1.83A1.83,1.83,0,0,0,288.5,92.56Z" transform="translate(-5 -2.03)"/><path class="cls-2" d="M294.11,95.26V86.58h1v8.68Z" transform="translate(-5 -2.03)"/><path class="cls-2" d="M305,92.8h-4.17v0a1.7,1.7,0,0,0,1.57,1.58,2,2,0,0,0,1.32-.56l.86.5a3.29,3.29,0,0,1-.73.61,3,3,0,0,1-1.43.4,2.42,2.42,0,0,1-1.83-.83,2.78,2.78,0,0,1-.74-1.7,2.18,2.18,0,0,1,0-.25,3.48,3.48,0,0,1,.07-.64,2.84,2.84,0,0,1,.68-1.31,2.46,2.46,0,0,1,1.83-.82,2.52,2.52,0,0,1,1.85.82,2.65,2.65,0,0,1,.67,1.31A3,3,0,0,1,305,92.8ZM303.93,92v0a1.55,1.55,0,0,0-3,0v0Z" transform="translate(-5 -2.03)"/><path class="cls-2" d="M207.15,94.88c0-.2,0-.2-.2-.2h-2a.21.21,0,0,1-.19-.07c-.22-.29-.45-.58-.68-.86a.13.13,0,0,1,0-.19,7,7,0,0,0,.73-1.23,12.1,12.1,0,0,0,.68-1.82.14.14,0,0,1,.06-.1h.82l.12,0h0s.06-.08.06-.17c0-.52,0-1,0-1.55,0-.2,0-.2-.21-.2h-2.18c-.14,0-.21,0-.23.19a11.37,11.37,0,0,1-.77,2.55c-.11.26-.25.51-.38.78l-.42-.56L199.8,88c-.12-.16-.12-.16.07-.23a7.12,7.12,0,0,0,1.68-.89,3,3,0,0,0,1.3-3,3.13,3.13,0,0,0-1.94-2.52,4,4,0,0,0-2.14-.34,3.72,3.72,0,0,0-2.36,1.07,3.23,3.23,0,0,0-.88,3.11,4.58,4.58,0,0,0,.86,1.74c.07.11.05.14,0,.19l-.49.24a6,6,0,0,0-2.06,1.73,4.48,4.48,0,0,0-.74,3.35,4.79,4.79,0,0,0,2,3.35,5.75,5.75,0,0,0,4.74.93,6.75,6.75,0,0,0,2.64-1.34c.11-.09.17-.08.25,0,.26.37.54.73.81,1.09a.27.27,0,0,0,.24.12H207c.16,0,.19,0,.19-.2C207.14,95.92,207.15,95.4,207.15,94.88Zm-9.22-11.47a1.39,1.39,0,0,1,.92-.5,1.16,1.16,0,0,1,.37,0,1.65,1.65,0,0,1,1.18.42,1.4,1.4,0,0,1,.14,1.71,3.1,3.1,0,0,1-1.09.88c-.26.14-.53.26-.8.39-.06,0-.11,0-.16,0a5.66,5.66,0,0,1-.8-1.52A1.43,1.43,0,0,1,197.93,83.41Zm3.65,10.48a4.94,4.94,0,0,1-2,1.12,3.77,3.77,0,0,1-1,.21,3.55,3.55,0,0,1-2.21-.68,3.7,3.7,0,0,1-1.46-2,2.25,2.25,0,0,1-.12-.77A2.86,2.86,0,0,1,196,89.43a12,12,0,0,1,1.57-.87c.12-.06.15,0,.2.09.54.7,1.07,1.4,1.6,2.11l2.22,2.91C201.67,93.76,201.66,93.81,201.58,93.89Z" transform="translate(-5 -2.03)"/><path class="cls-2" d="M223.15,16.23H219v0a1.71,1.71,0,0,0,1.57,1.58,2,2,0,0,0,1.33-.57l.85.51a3.24,3.24,0,0,1-.72.61,3.07,3.07,0,0,1-1.43.4,2.44,2.44,0,0,1-1.84-.83,2.83,2.83,0,0,1-.73-1.7,1.1,1.1,0,0,1,0-.25,2.8,2.8,0,0,1,.08-.64,2.74,2.74,0,0,1,.67-1.31,2.47,2.47,0,0,1,3.68,0,2.75,2.75,0,0,1,.68,1.31A3.49,3.49,0,0,1,223.15,16.23Zm-1.07-.85v0a1.64,1.64,0,0,0-1.5-1.17,1.66,1.66,0,0,0-1.51,1.17v0Z" transform="translate(-5 -2.03)"/><path class="cls-2" d="M232.11,13.27h1v5.42h-1v-.62a2.92,2.92,0,0,1-1.82.74,2.84,2.84,0,0,1-2-.81,2.86,2.86,0,0,1,0-4,2.84,2.84,0,0,1,2-.81,2.92,2.92,0,0,1,1.82.74Zm0,2.71a1.82,1.82,0,1,0-1.82,1.84A1.83,1.83,0,0,0,232.11,16Z" transform="translate(-5 -2.03)"/><path class="cls-2" d="M241.91,17.1a1.45,1.45,0,0,1-.26.85,1.7,1.7,0,0,1-.72.59,2.37,2.37,0,0,1-1,.2,2.67,2.67,0,0,1-.56-.06,3.65,3.65,0,0,1-1.62-.78l.64-.7a2.28,2.28,0,0,0,1.49.64,1.61,1.61,0,0,0,.63-.13.68.68,0,0,0,.42-.61c0-.37-.31-.59-1.05-.73a6.1,6.1,0,0,1-1.26-.36,1.39,1.39,0,0,1-.76-1.27,1.48,1.48,0,0,1,.26-.83,1.74,1.74,0,0,1,.67-.52,2.23,2.23,0,0,1,.94-.2,2.69,2.69,0,0,1,.4,0,3,3,0,0,1,1.45.65l-.59.68a2,2,0,0,0-1.22-.47,1.29,1.29,0,0,0-.57.12.64.64,0,0,0-.39.54c0,.36.28.55,1,.7a6.93,6.93,0,0,1,1.25.37,1.36,1.36,0,0,1,.82,1.29Z" transform="translate(-5 -2.03)"/><path class="cls-2" d="M248.15,21.79h-1.1l1.27-3.1-2.2-5.42h1.1l1.65,4.08,1.64-4.08h1.1Z" transform="translate(-5 -2.03)"/><path class="cls-2" d="M265.9,10l-.26,1h-.91a.84.84,0,0,0-.81.83v1.46h1.67v1h-1.67v4.44h-1V14.25h-.81v-1h.81V11.78a1.77,1.77,0,0,1,1.8-1.77Z" transform="translate(-5 -2.03)"/><path class="cls-2" d="M270.33,11.73a.67.67,0,0,1,.68-.67.67.67,0,0,1,0,1.34A.68.68,0,0,1,270.33,11.73Zm.17,1.54h1v5.42h-1Z" transform="translate(-5 -2.03)"/><path class="cls-2" d="M277.22,16.9V14.25h-.81v-1h.81V11.18h1v2.09h1.67v1h-1.67v2.62a.87.87,0,0,0,.81.86H280l.26,1H279A1.78,1.78,0,0,1,277.22,16.9Z" transform="translate(-5 -2.03)"/><path class="cls-2" d="M207.15,18.31c0-.2,0-.2-.2-.2h-2a.21.21,0,0,1-.19-.07c-.22-.29-.45-.58-.68-.86,0-.08-.06-.12,0-.2a6.57,6.57,0,0,0,.73-1.22,12.1,12.1,0,0,0,.68-1.82.17.17,0,0,1,.06-.11h.82l.12,0h0s.06-.08.06-.17c0-.52,0-1,0-1.56,0-.2,0-.2-.21-.2h-2v0h-.18c-.14,0-.21,0-.23.19a11.13,11.13,0,0,1-.77,2.54c-.11.26-.25.52-.38.79l-.42-.57c-.85-1.15-1.71-2.3-2.56-3.46-.12-.16-.12-.16.07-.24a7.08,7.08,0,0,0,1.68-.88,3,3,0,0,0,1.3-3,3.13,3.13,0,0,0-1.94-2.52,4,4,0,0,0-2.14-.35,3.73,3.73,0,0,0-2.36,1.08,3.22,3.22,0,0,0-.88,3.1,4.55,4.55,0,0,0,.86,1.75c.07.1.05.14,0,.19a4.44,4.44,0,0,0-.49.24,5.93,5.93,0,0,0-2.06,1.73,4.48,4.48,0,0,0-.74,3.35,4.81,4.81,0,0,0,2,3.35,5.75,5.75,0,0,0,4.74.92,6.6,6.6,0,0,0,2.64-1.33c.11-.09.17-.08.25,0,.26.37.54.72.81,1.09a.27.27,0,0,0,.24.12H207c.16,0,.19,0,.19-.2C207.14,19.34,207.15,18.82,207.15,18.31ZM197.93,6.83a1.38,1.38,0,0,1,.92-.49,1.16,1.16,0,0,1,.37,0,1.65,1.65,0,0,1,1.18.42,1.39,1.39,0,0,1,.14,1.7,3,3,0,0,1-1.09.88c-.26.14-.53.26-.8.39-.06,0-.11.05-.16,0a6,6,0,0,1-.8-1.52A1.45,1.45,0,0,1,197.93,6.83Zm3.65,10.49a5.06,5.06,0,0,1-2,1.12,4.68,4.68,0,0,1-1,.21,3.5,3.5,0,0,1-2.21-.69A3.68,3.68,0,0,1,194.86,16a2.31,2.31,0,0,1-.12-.78A2.84,2.84,0,0,1,196,12.86a12,12,0,0,1,1.57-.87c.12-.06.15,0,.2.09l1.6,2.1,2.22,2.91C201.67,17.19,201.66,17.24,201.58,17.32Z" transform="translate(-5 -2.03)"/><path class="cls-2" d="M219.39,116.09a3.32,3.32,0,0,1,2-.68l-.25,1a1.68,1.68,0,0,0-1.73,1.63V121h-1v-5.42h1Z" transform="translate(-5 -2.03)"/><path class="cls-2" d="M230.38,118.49h-4.17v0a1.73,1.73,0,0,0,1.57,1.59,2.12,2.12,0,0,0,1.33-.57l.85.51a3.48,3.48,0,0,1-.72.6,3.08,3.08,0,0,1-1.44.4,2.41,2.41,0,0,1-1.83-.82,2.82,2.82,0,0,1-.73-1.71,2,2,0,0,1,0-.25,2.93,2.93,0,0,1,.74-2,2.48,2.48,0,0,1,1.83-.82,2.51,2.51,0,0,1,1.85.82,2.92,2.92,0,0,1,.73,2.18Zm-1.06-.85v0a1.64,1.64,0,0,0-1.51-1.17,1.66,1.66,0,0,0-1.5,1.17v0Z" transform="translate(-5 -2.03)"/><path class="cls-2" d="M239.83,119.91c-.1.12-.19.23-.3.34a2.86,2.86,0,0,1-4,0,2.83,2.83,0,0,1,2-4.84,2.8,2.8,0,0,1,2,.82,1.75,1.75,0,0,1,.28.33l-.81.6a1.84,1.84,0,1,0,0,2.14Z" transform="translate(-5 -2.03)"/><path class="cls-2" d="M246.05,124.05H245l1.26-3.1-2.2-5.42h1.1l1.65,4.07,1.64-4.07h1.1Z" transform="translate(-5 -2.03)"/><path class="cls-2" d="M258.83,119.91c-.1.12-.19.23-.3.34a2.86,2.86,0,0,1-4,0,2.83,2.83,0,0,1,2-4.84,2.8,2.8,0,0,1,2,.82,1.75,1.75,0,0,1,.28.33l-.81.6a1.84,1.84,0,1,0,0,2.14Z" transform="translate(-5 -2.03)"/><path class="cls-2" d="M263.5,121v-8.69h1V121Z" transform="translate(-5 -2.03)"/><path class="cls-2" d="M273.79,115.53h1V121h-1v-.63a2.74,2.74,0,0,1-3.84-.07,2.87,2.87,0,0,1,0-4,2.74,2.74,0,0,1,3.84-.07Zm0,2.71a1.83,1.83,0,1,0-1.82,1.83A1.83,1.83,0,0,0,273.79,118.24Z" transform="translate(-5 -2.03)"/><path class="cls-2" d="M285.4,118.24a2.83,2.83,0,0,1-2.84,2.83,2.91,2.91,0,0,1-1.83-.75V121h-1v-8.69h1v3.9a2.91,2.91,0,0,1,1.83-.75,2.83,2.83,0,0,1,2.84,2.83Zm-1,0a1.83,1.83,0,1,0-1.82,1.83A1.83,1.83,0,0,0,284.38,118.24Z" transform="translate(-5 -2.03)"/><path class="cls-2" d="M290,121v-8.69h1V121Z" transform="translate(-5 -2.03)"/><path class="cls-2" d="M300.87,118.49h-4.18v0a1.73,1.73,0,0,0,1.58,1.59,2.09,2.09,0,0,0,1.32-.57l.85.51a3.48,3.48,0,0,1-.72.6,3,3,0,0,1-1.43.4,2.41,2.41,0,0,1-1.83-.82,2.83,2.83,0,0,1-.74-1.71,2,2,0,0,1,0-.25,2.89,2.89,0,0,1,.75-2,2.46,2.46,0,0,1,1.83-.82,2.52,2.52,0,0,1,1.85.82,2.83,2.83,0,0,1,.67,1.31A3.56,3.56,0,0,1,300.87,118.49Zm-1.07-.85v0a1.63,1.63,0,0,0-1.5-1.17,1.66,1.66,0,0,0-1.5,1.17l0,0Z" transform="translate(-5 -2.03)"/><path class="cls-2" d="M207.15,120.56c0-.2,0-.2-.2-.2h-2c-.07,0-.13,0-.19-.06l-.68-.87a.13.13,0,0,1,0-.19,6.33,6.33,0,0,0,.73-1.23,11.71,11.71,0,0,0,.68-1.82.14.14,0,0,1,.06-.1h.82a.22.22,0,0,0,.12,0h0s.06-.09.06-.18c0-.52,0-1,0-1.55,0-.2,0-.2-.21-.2h-2.18c-.14,0-.21,0-.23.2a11.44,11.44,0,0,1-.77,2.54c-.11.26-.25.51-.38.79l-.42-.57-2.56-3.46c-.12-.17-.12-.17.07-.24a7.47,7.47,0,0,0,1.68-.88,3,3,0,0,0,1.3-3,3.15,3.15,0,0,0-1.94-2.52,4,4,0,0,0-2.14-.34,3.68,3.68,0,0,0-2.36,1.08,3.21,3.21,0,0,0-.88,3.1,4.7,4.7,0,0,0,.86,1.75c.07.1.05.14,0,.18l-.49.24a6,6,0,0,0-2.06,1.73,4.51,4.51,0,0,0-.74,3.36,4.81,4.81,0,0,0,2,3.35,5.75,5.75,0,0,0,4.74.92,6.62,6.62,0,0,0,2.64-1.34c.11-.09.17-.08.25,0,.26.36.54.72.81,1.08a.26.26,0,0,0,.24.13H207c.16,0,.19-.06.19-.2C207.14,121.6,207.15,121.08,207.15,120.56Zm-9.22-11.47a1.38,1.38,0,0,1,.92-.49,1.17,1.17,0,0,1,.37,0,1.7,1.7,0,0,1,1.18.42,1.4,1.4,0,0,1,.14,1.71,3.1,3.1,0,0,1-1.09.88c-.26.14-.53.26-.8.39-.06,0-.11.05-.16,0a5.88,5.88,0,0,1-.8-1.53A1.43,1.43,0,0,1,197.93,109.09Zm3.65,10.48a5.08,5.08,0,0,1-2,1.13,4.16,4.16,0,0,1-1,.2,3.43,3.43,0,0,1-2.21-.68,3.7,3.7,0,0,1-1.46-2,2.25,2.25,0,0,1-.12-.77,2.86,2.86,0,0,1,1.26-2.39,13.34,13.34,0,0,1,1.57-.87c.12,0,.15,0,.2.09.54.7,1.07,1.41,1.6,2.11l2.22,2.91C201.67,119.44,201.66,119.5,201.58,119.57Z" transform="translate(-5 -2.03)"/></svg>