<svg id="Laag_1" data-name="Laag 1" xmlns="http://www.w3.org/2000/svg" viewBox="0 0 300 109.63"><defs><style>.cls-1,.cls-2,.cls-4{fill:#1d1d1b;}.cls-2{font-size:30.94px;font-family:Biko-Bold, Biko;font-weight:700;}.cls-3{letter-spacing:-0.05em;}.cls-4{font-size:19.71px;font-family:Biko;letter-spacing:0.3em;}.cls-5{letter-spacing:0.32em;}.cls-6{letter-spacing:0.3em;}.cls-7{letter-spacing:0.3em;}.cls-8{letter-spacing:0.29em;}.cls-9{letter-spacing:0.33em;}</style></defs><path class="cls-1" d="M202.54,42.32a1.52,1.52,0,0,1-.26.85,1.74,1.74,0,0,1-.73.59,2.34,2.34,0,0,1-1,.2,3.28,3.28,0,0,1-2.18-.84l.64-.7a2.28,2.28,0,0,0,1.49.64,1.45,1.45,0,0,0,.63-.13.67.67,0,0,0,.43-.61c0-.37-.32-.6-1.06-.73a6.1,6.1,0,0,1-1.26-.36,1.41,1.41,0,0,1-.76-1.27,1.46,1.46,0,0,1,.26-.83,1.65,1.65,0,0,1,.67-.52,2.26,2.26,0,0,1,.94-.2l.4,0a3.16,3.16,0,0,1,1.46.65l-.59.69a2,2,0,0,0-1.22-.48,1.31,1.31,0,0,0-.58.12.66.66,0,0,0-.39.55c0,.35.28.54,1,.7a7.66,7.66,0,0,1,1.26.36,1.5,1.5,0,0,1,.57.47A1.45,1.45,0,0,1,202.54,42.32Z" transform="translate(-5 -1.83)"/><path class="cls-1" d="M207.27,36.94a.67.67,0,0,1,.68-.67.67.67,0,0,1,0,1.34A.68.68,0,0,1,207.27,36.94Zm.17,1.55h1v5.43h-1Z" transform="translate(-5 -1.83)"/><path class="cls-1" d="M213.72,43.92v-8.7h1v8.7Z" transform="translate(-5 -1.83)"/><path class="cls-1" d="M225.26,43.92H224l-2-2.75L221,42v1.88h-1v-8.7h1v5.46l2.36-2.19h1.46l-2.11,2Z" transform="translate(-5 -1.83)"/><path class="cls-1" d="M231,47h-1.1l1.26-3.1-2.2-5.43H230l1.65,4.08,1.65-4.08h1.1Z" transform="translate(-5 -1.83)"/><path class="cls-1" d="M245.55,42.12V39.46h-.81v-1h.81v-2.1h1v2.1h1.67v1h-1.67v2.63a.87.87,0,0,0,.81.86h.91l.26,1h-1.2A1.8,1.8,0,0,1,245.55,42.12Z" transform="translate(-5 -1.83)"/><path class="cls-1" d="M258.2,41.2a2.85,2.85,0,0,1-2.84,2.85,2.83,2.83,0,0,1-2.84-2.85,2.82,2.82,0,0,1,2.84-2.83,2.83,2.83,0,0,1,2.84,2.83Zm-1,0A1.83,1.83,0,1,0,255.36,43,1.82,1.82,0,0,0,257.19,41.2Z" transform="translate(-5 -1.83)"/><path class="cls-1" d="M262.87,41.59v-3.1h1v3.1a1.5,1.5,0,0,0,3,0v-3.1h1v3.1a2.42,2.42,0,0,1-.75,1.75,2.59,2.59,0,0,1-3.54,0A2.45,2.45,0,0,1,262.87,41.59Z" transform="translate(-5 -1.83)"/><path class="cls-1" d="M277.7,42.87a3.27,3.27,0,0,1-.3.35,2.86,2.86,0,0,1-4,0,2.85,2.85,0,0,1-.83-2,2.82,2.82,0,0,1,2.84-2.83,2.76,2.76,0,0,1,2,.82,1.81,1.81,0,0,1,.29.33l-.82.6a1.85,1.85,0,1,0,0,2.15Z" transform="translate(-5 -1.83)"/><path class="cls-1" d="M287.43,41v2.92h-1V41a1.6,1.6,0,1,0-3.2,0v2.92h-1v-8.7h1V39a2.67,2.67,0,0,1,1.6-.63A2.6,2.6,0,0,1,287.43,41Z" transform="translate(-5 -1.83)"/><path class="cls-1" d="M187.57,43.53c0-.2,0-.2-.2-.2h-2a.2.2,0,0,1-.19-.07c-.22-.29-.45-.58-.68-.86a.13.13,0,0,1,0-.2,6.57,6.57,0,0,0,.73-1.22,12.17,12.17,0,0,0,.67-1.83.2.2,0,0,1,.07-.1h.82a.22.22,0,0,0,.12,0h0c.05,0,.06-.09.06-.18,0-.52,0-1,0-1.55,0-.2,0-.2-.21-.2h-2v0h-.17c-.15,0-.21,0-.24.19a10.85,10.85,0,0,1-.76,2.55c-.12.26-.25.51-.39.79l-.42-.57-2.56-3.47c-.12-.16-.12-.16.07-.24a7.08,7.08,0,0,0,1.68-.88,3,3,0,0,0,1.31-3,3.13,3.13,0,0,0-2-2.52,4,4,0,0,0-2.14-.35,3.75,3.75,0,0,0-2.37,1.08,3.2,3.2,0,0,0-.87,3.11,4.6,4.6,0,0,0,.85,1.75c.07.1.05.14,0,.19a4.3,4.3,0,0,0-.48.24,6,6,0,0,0-2.07,1.73,4.5,4.5,0,0,0-.74,3.36,4.81,4.81,0,0,0,2,3.35,5.74,5.74,0,0,0,4.75.93A6.75,6.75,0,0,0,182.86,44c.12-.09.17-.08.25,0l.81,1.09a.26.26,0,0,0,.24.12h3.22c.16,0,.19-.06.19-.21C187.56,44.57,187.57,44.05,187.57,43.53ZM178.34,32a1.39,1.39,0,0,1,.92-.5,1.14,1.14,0,0,1,.37,0,1.65,1.65,0,0,1,1.18.42,1.4,1.4,0,0,1,.14,1.71,3.1,3.1,0,0,1-1.09.88c-.26.14-.54.26-.8.39-.06,0-.11.05-.16,0a5.91,5.91,0,0,1-.81-1.53A1.46,1.46,0,0,1,178.34,32ZM182,42.54a5.06,5.06,0,0,1-2,1.12,4.16,4.16,0,0,1-1,.21,3.55,3.55,0,0,1-2.2-.68,3.74,3.74,0,0,1-1.47-2,2.22,2.22,0,0,1-.12-.77,2.85,2.85,0,0,1,1.27-2.39A12,12,0,0,1,178,37.2c.12-.06.15,0,.2.09l1.6,2.11L182,42.31A.15.15,0,0,1,182,42.54Z" transform="translate(-5 -1.83)"/><path class="cls-1" d="M204.5,66.93a2.83,2.83,0,0,1-2.84,2.83,2.91,2.91,0,0,1-1.83-.75v.63h-1v-8.7h1v3.9a3,3,0,0,1,1.83-.74,2.82,2.82,0,0,1,2.84,2.83Zm-1,0a1.83,1.83,0,1,0-1.82,1.84A1.83,1.83,0,0,0,203.48,66.93Z" transform="translate(-5 -1.83)"/><path class="cls-1" d="M210.24,64.77a3.29,3.29,0,0,1,2-.67l-.25,1a1.68,1.68,0,0,0-1.73,1.63v2.89h-1V64.21h1Z" transform="translate(-5 -1.83)"/><path class="cls-1" d="M221.25,67.18h-4.19v0a1.73,1.73,0,0,0,1.58,1.59,2.06,2.06,0,0,0,1.33-.57l.85.51a3,3,0,0,1-.72.6,3.21,3.21,0,0,1-1.44.41,2.42,2.42,0,0,1-1.83-.83,2.81,2.81,0,0,1-.74-1.71,2.09,2.09,0,0,1,0-.25,2.79,2.79,0,0,1,.07-.64,2.75,2.75,0,0,1,.68-1.31,2.46,2.46,0,0,1,1.83-.82,2.51,2.51,0,0,1,1.85.82,2.75,2.75,0,0,1,.68,1.31A3.56,3.56,0,0,1,221.25,67.18Zm-1.07-.86v0a1.64,1.64,0,0,0-1.51-1.17,1.66,1.66,0,0,0-1.5,1.17v0Z" transform="translate(-5 -1.83)"/><path class="cls-1" d="M230.23,64.21h1v5.43h-1V69a2.91,2.91,0,0,1-1.83.75,2.82,2.82,0,0,1-2.84-2.83,2.8,2.8,0,0,1,2.84-2.83,3,3,0,0,1,1.83.74Zm0,2.72a1.83,1.83,0,1,0-1.83,1.84A1.84,1.84,0,0,0,230.23,66.93Z" transform="translate(-5 -1.83)"/><path class="cls-1" d="M236.65,67.84V65.19h-.81v-1h.81V62.12h1v2.09h1.67v1h-1.67v2.63a.86.86,0,0,0,.81.85h.91l.26,1h-1.2A1.79,1.79,0,0,1,236.65,67.84Z" transform="translate(-5 -1.83)"/><path class="cls-1" d="M249.28,66.73v2.91h-1V66.73a1.6,1.6,0,1,0-3.2,0v2.91h-1v-8.7h1v3.8a2.7,2.7,0,0,1,1.6-.63,2.6,2.6,0,0,1,2.62,2.62Z" transform="translate(-5 -1.83)"/><path class="cls-1" d="M258.44,64.21h1v5.43h-1V69a2.9,2.9,0,0,1-1.82.75,2.82,2.82,0,0,1-2.85-2.83,2.8,2.8,0,0,1,2.85-2.83,3,3,0,0,1,1.82.74Zm0,2.72a1.83,1.83,0,1,0-1.82,1.84A1.83,1.83,0,0,0,258.44,66.93Z" transform="translate(-5 -1.83)"/><path class="cls-1" d="M270.07,66.93a2.82,2.82,0,0,1-.84,2,2.78,2.78,0,0,1-2,.82A2.91,2.91,0,0,1,265.4,69v.63h-1v-8.7h1v3.9a3,3,0,0,1,1.83-.74,2.81,2.81,0,0,1,2,.81A2.86,2.86,0,0,1,270.07,66.93Zm-1,0a1.83,1.83,0,1,0-1.82,1.84A1.84,1.84,0,0,0,269.05,66.93Z" transform="translate(-5 -1.83)"/><path class="cls-1" d="M274.67,69.64v-8.7h1v8.7Z" transform="translate(-5 -1.83)"/><path class="cls-1" d="M285.57,67.18h-4.19v0A1.73,1.73,0,0,0,283,68.79a2.09,2.09,0,0,0,1.33-.57l.85.51a3,3,0,0,1-.72.6,3.21,3.21,0,0,1-1.44.41,2.42,2.42,0,0,1-1.83-.83,2.81,2.81,0,0,1-.74-1.71,2.09,2.09,0,0,1,0-.25,2.79,2.79,0,0,1,.07-.64,2.75,2.75,0,0,1,.68-1.31,2.46,2.46,0,0,1,1.83-.82,2.51,2.51,0,0,1,1.85.82,2.75,2.75,0,0,1,.68,1.31A3.56,3.56,0,0,1,285.57,67.18Zm-1.07-.86v0A1.64,1.64,0,0,0,283,65.13a1.66,1.66,0,0,0-1.5,1.17v0Z" transform="translate(-5 -1.83)"/><path class="cls-1" d="M188.44,69c0-.22,0-.22-.23-.22H186a.25.25,0,0,1-.21-.07c-.25-.33-.5-.66-.76-1-.06-.08-.07-.13,0-.21a8.37,8.37,0,0,0,.82-1.38,13.64,13.64,0,0,0,.76-2,.14.14,0,0,1,.07-.11h.92l.14,0h0c.05,0,.06-.09.06-.2,0-.58,0-1.16,0-1.74,0-.22,0-.23-.23-.23h-2.25v0h-.2c-.16,0-.24,0-.27.22a12.54,12.54,0,0,1-.85,2.86c-.13.29-.28.57-.44.88l-.47-.64-2.88-3.89c-.13-.18-.13-.18.09-.27a8.05,8.05,0,0,0,1.88-1,3.33,3.33,0,0,0,1.47-3.33,3.52,3.52,0,0,0-2.18-2.83,4.53,4.53,0,0,0-2.41-.39,4.21,4.21,0,0,0-2.66,1.21,3.64,3.64,0,0,0-1,3.49,5.28,5.28,0,0,0,1,2c.08.12.06.16-.06.21l-.54.27a6.6,6.6,0,0,0-2.31,1.95,5,5,0,0,0-.84,3.77A5.39,5.39,0,0,0,174.86,70a6.48,6.48,0,0,0,5.33,1,7.66,7.66,0,0,0,3-1.5c.12-.1.18-.09.27,0l.91,1.22a.29.29,0,0,0,.27.13h3.61c.18,0,.22-.07.22-.23C188.43,70.17,188.44,69.59,188.44,69ZM178.08,56.11a1.52,1.52,0,0,1,1-.56,1.49,1.49,0,0,1,.42,0,1.84,1.84,0,0,1,1.32.47,1.58,1.58,0,0,1,.16,1.92,3.35,3.35,0,0,1-1.23,1c-.29.16-.6.3-.9.44-.06,0-.12.06-.17,0a6.7,6.7,0,0,1-.91-1.71A1.63,1.63,0,0,1,178.08,56.11Zm4.09,11.78a5.52,5.52,0,0,1-2.25,1.26,4.76,4.76,0,0,1-1.18.24,4,4,0,0,1-2.47-.77,4.2,4.2,0,0,1-1.65-2.19,2.55,2.55,0,0,1-.13-.87,3.19,3.19,0,0,1,1.42-2.68,14.37,14.37,0,0,1,1.76-1c.13-.06.17,0,.22.1l1.81,2.37,2.49,3.27C182.27,67.74,182.27,67.81,182.17,67.89Z" transform="translate(-5 -1.83)"/><path class="cls-1" d="M203.59,92.42h-4.18v0A1.71,1.71,0,0,0,201,94a2,2,0,0,0,1.33-.57l.85.51a3.24,3.24,0,0,1-.72.61A3,3,0,0,1,201,95a2.41,2.41,0,0,1-1.84-.83,2.77,2.77,0,0,1-.73-1.71,1,1,0,0,1,0-.24,3.39,3.39,0,0,1,.07-.64,2.93,2.93,0,0,1,.68-1.32,2.49,2.49,0,0,1,1.84-.82,2.52,2.52,0,0,1,1.85.82,2.73,2.73,0,0,1,.67,1.32A3,3,0,0,1,203.59,92.42Zm-1.07-.85v0a1.64,1.64,0,0,0-1.5-1.17,1.68,1.68,0,0,0-1.51,1.17v0Z" transform="translate(-5 -1.83)"/><path class="cls-1" d="M212.57,89.46h1v5.43h-1v-.63a2.84,2.84,0,1,1,0-4.17Zm0,2.71A1.83,1.83,0,1,0,210.75,94,1.82,1.82,0,0,0,212.57,92.17Z" transform="translate(-5 -1.83)"/><path class="cls-1" d="M222.39,93.29a1.46,1.46,0,0,1-.27.85,1.65,1.65,0,0,1-.72.59,2.37,2.37,0,0,1-1,.2,2.67,2.67,0,0,1-.56-.06,3.6,3.6,0,0,1-1.62-.78l.64-.7a2.28,2.28,0,0,0,1.49.64,1.45,1.45,0,0,0,.63-.13.67.67,0,0,0,.43-.61c0-.37-.32-.6-1.06-.73a6.32,6.32,0,0,1-1.27-.36,1.42,1.42,0,0,1-.75-1.27,1.46,1.46,0,0,1,.26-.83,1.51,1.51,0,0,1,.67-.52,2.23,2.23,0,0,1,.94-.2l.4,0a3.16,3.16,0,0,1,1.46.65l-.59.69a2,2,0,0,0-1.22-.48,1.31,1.31,0,0,0-.58.12.65.65,0,0,0-.4.55c0,.35.29.54,1,.7a7.94,7.94,0,0,1,1.26.36,1.5,1.5,0,0,1,.57.47A1.45,1.45,0,0,1,222.39,93.29Z" transform="translate(-5 -1.83)"/><path class="cls-1" d="M228.64,98h-1.1l1.27-3.1-2.21-5.43h1.1l1.65,4.08L231,89.46h1.1Z" transform="translate(-5 -1.83)"/><path class="cls-1" d="M247.73,93.84c-.1.12-.19.24-.3.35a2.8,2.8,0,0,1-2,.81,2.86,2.86,0,0,1-2-.81,2.9,2.9,0,0,1-.83-2,2.82,2.82,0,0,1,2.85-2.83,2.76,2.76,0,0,1,2,.82,2.28,2.28,0,0,1,.29.33l-.82.6a1.85,1.85,0,1,0,0,2.15Z" transform="translate(-5 -1.83)"/><path class="cls-1" d="M257.54,92.17a2.85,2.85,0,0,1-4.86,2,2.9,2.9,0,0,1-.83-2,2.85,2.85,0,0,1,.83-2,2.85,2.85,0,0,1,4.86,2Zm-1,0A1.83,1.83,0,1,0,254.69,94,1.81,1.81,0,0,0,256.52,92.17Z" transform="translate(-5 -1.83)"/><path class="cls-1" d="M271.53,92v2.92h-1V92a1.61,1.61,0,1,0-3.22,0v2.92h-1V92a1.6,1.6,0,1,0-3.2,0v2.92h-1V89.46h1V90a2.7,2.7,0,0,1,1.6-.63,2.63,2.63,0,0,1,1.86.81,1.68,1.68,0,0,1,.25.29c.09-.1.17-.2.26-.29a2.67,2.67,0,0,1,1.86-.81,2.56,2.56,0,0,1,1.85.76A2.59,2.59,0,0,1,271.53,92Z" transform="translate(-5 -1.83)"/><path class="cls-1" d="M279.86,86.19l-.26,1h-.91a.84.84,0,0,0-.81.83v1.47h1.67v1h-1.67v4.46h-1V90.43h-.81v-1h.81V88a1.78,1.78,0,0,1,1.8-1.77Z" transform="translate(-5 -1.83)"/><path class="cls-1" d="M289.36,92.17a2.85,2.85,0,0,1-4.86,2,2.9,2.9,0,0,1-.83-2,2.82,2.82,0,0,1,2.84-2.83,2.83,2.83,0,0,1,2.85,2.83Zm-1,0A1.83,1.83,0,1,0,286.51,94,1.81,1.81,0,0,0,288.34,92.17Z" transform="translate(-5 -1.83)"/><path class="cls-1" d="M295,90a3.32,3.32,0,0,1,2-.68l-.25,1A1.68,1.68,0,0,0,295,92v2.9h-1V89.46h1Z" transform="translate(-5 -1.83)"/><path class="cls-1" d="M302,93.08V90.43h-.81v-1H302v-2.1h1v2.1h1.67v1H303v2.63a.86.86,0,0,0,.81.85h.91l.26,1h-1.2A1.8,1.8,0,0,1,302,93.08Z" transform="translate(-5 -1.83)"/><path class="cls-1" d="M188.44,94.25c0-.22,0-.22-.23-.22H186a.25.25,0,0,1-.21-.07c-.25-.33-.5-.66-.76-1-.06-.08-.07-.13,0-.21a8,8,0,0,0,.82-1.38,13.64,13.64,0,0,0,.76-2,.14.14,0,0,1,.07-.11h.92l.14,0h0c.05,0,.06-.09.06-.19,0-.59,0-1.17,0-1.75,0-.22,0-.22-.23-.23h-2.25v0h-.2c-.16,0-.24,0-.27.22a12.54,12.54,0,0,1-.85,2.86c-.13.29-.28.57-.44.88l-.47-.64-2.88-3.89c-.13-.18-.13-.18.09-.27a8.05,8.05,0,0,0,1.88-1,3.33,3.33,0,0,0,1.47-3.33,3.53,3.53,0,0,0-2.18-2.83,4.53,4.53,0,0,0-2.41-.39,4.21,4.21,0,0,0-2.66,1.21,3.64,3.64,0,0,0-1,3.49,5.28,5.28,0,0,0,1,2c.08.12.06.16-.06.21l-.54.28a6.47,6.47,0,0,0-2.31,1.94,5,5,0,0,0-.84,3.77,5.39,5.39,0,0,0,2.27,3.76,6.48,6.48,0,0,0,5.33,1,7.66,7.66,0,0,0,3-1.5c.12-.1.18-.09.27,0l.91,1.22a.32.32,0,0,0,.27.14c1.21,0,2.41,0,3.61,0,.18,0,.22-.07.22-.23C188.43,95.42,188.44,94.84,188.44,94.25ZM178.08,81.36a1.52,1.52,0,0,1,1-.56,1.49,1.49,0,0,1,.42,0,1.84,1.84,0,0,1,1.32.47,1.58,1.58,0,0,1,.16,1.92,3.35,3.35,0,0,1-1.23,1c-.29.16-.6.3-.9.44-.06,0-.12.06-.17,0a6.7,6.7,0,0,1-.91-1.71A1.63,1.63,0,0,1,178.08,81.36Zm4.09,11.78a5.52,5.52,0,0,1-2.25,1.26,4.76,4.76,0,0,1-1.18.24,4,4,0,0,1-2.47-.77,4.2,4.2,0,0,1-1.65-2.19,2.55,2.55,0,0,1-.13-.87,3.19,3.19,0,0,1,1.42-2.68,14.37,14.37,0,0,1,1.76-1c.13-.06.17,0,.22.1l1.81,2.37,2.49,3.27C182.27,93,182.27,93.06,182.17,93.14Z" transform="translate(-5 -1.83)"/><path class="cls-1" d="M203.9,15.28V18.2h-1V15.28a1.6,1.6,0,1,0-3.2,0V18.2h-1V12.77h1v.52a2.67,2.67,0,0,1,1.6-.63,2.6,2.6,0,0,1,2.62,2.62Z" transform="translate(-5 -1.83)"/><path class="cls-1" d="M213.06,12.77h1V18.2h-1v-.63a3,3,0,0,1-1.82.74,2.84,2.84,0,0,1-2-4.84,2.84,2.84,0,0,1,2-.82,2.9,2.9,0,0,1,1.82.75Zm0,2.71a1.83,1.83,0,1,0-1.82,1.84A1.84,1.84,0,0,0,213.06,15.48Z" transform="translate(-5 -1.83)"/><path class="cls-1" d="M219.48,16.39V13.74h-.8v-1h.8v-2.1h1v2.1h1.67v1H220.5v2.63a.86.86,0,0,0,.81.85h.91l.26,1h-1.19A1.8,1.8,0,0,1,219.48,16.39Z" transform="translate(-5 -1.83)"/><path class="cls-1" d="M227,15.87v-3.1h1v3.1a1.47,1.47,0,0,0,1.49,1.45,1.48,1.48,0,0,0,1.5-1.45v-3.1h1v3.1a2.41,2.41,0,0,1-.74,1.74,2.59,2.59,0,0,1-3.54,0A2.37,2.37,0,0,1,227,15.87Z" transform="translate(-5 -1.83)"/><path class="cls-1" d="M238,13.32a3.29,3.29,0,0,1,2-.67l-.25,1A1.68,1.68,0,0,0,238,15.3v2.9h-1V12.77h1Z" transform="translate(-5 -1.83)"/><path class="cls-1" d="M248.61,12.77h1V18.2h-1v-.63a3,3,0,0,1-1.82.74,2.84,2.84,0,0,1-2-4.84,2.84,2.84,0,0,1,2-.82,2.9,2.9,0,0,1,1.82.75Zm0,2.71a1.83,1.83,0,1,0-1.82,1.84A1.84,1.84,0,0,0,248.61,15.48Z" transform="translate(-5 -1.83)"/><path class="cls-1" d="M254.7,18.2V9.5h1v8.7Z" transform="translate(-5 -1.83)"/><path class="cls-1" d="M270.55,9.5l-.26,1h-.91a.84.84,0,0,0-.81.83v1.47h1.67v1h-1.67V18.2h-1V13.74h-.81v-1h.81v-1.5a1.78,1.78,0,0,1,1.8-1.77Z" transform="translate(-5 -1.83)"/><path class="cls-1" d="M275,11.21a.67.67,0,0,1,1.34,0,.67.67,0,1,1-1.34,0Zm.16,1.56h1V18.2h-1Z" transform="translate(-5 -1.83)"/><path class="cls-1" d="M287.15,15.48a2.83,2.83,0,0,1-.85,2,2.8,2.8,0,0,1-2,.81,3,3,0,0,1-1.82-.74v.63h-1V9.5h1v3.9a2.9,2.9,0,0,1,1.82-.75,2.85,2.85,0,0,1,2.85,2.83Zm-1,0a1.83,1.83,0,1,0-1.83,1.84A1.84,1.84,0,0,0,286.13,15.48Z" transform="translate(-5 -1.83)"/><path class="cls-1" d="M292.88,13.32a3.29,3.29,0,0,1,2-.67l-.25,1a1.68,1.68,0,0,0-1.73,1.63v2.9h-1V12.77h1Z" transform="translate(-5 -1.83)"/><path class="cls-1" d="M303.89,15.73h-4.18v0a1.71,1.71,0,0,0,1.57,1.59,2,2,0,0,0,1.33-.57l.85.51a3.24,3.24,0,0,1-.72.61,3.08,3.08,0,0,1-1.44.4,2.42,2.42,0,0,1-1.83-.83,2.78,2.78,0,0,1-.74-1.71,1.93,1.93,0,0,1,0-.24,2.73,2.73,0,0,1,.07-.64,2.83,2.83,0,0,1,.68-1.32,2.47,2.47,0,0,1,3.68,0,2.83,2.83,0,0,1,.68,1.32A3.47,3.47,0,0,1,303.89,15.73Zm-1.07-.85v0a1.64,1.64,0,0,0-1.51-1.17,1.66,1.66,0,0,0-1.5,1.17v0Z" transform="translate(-5 -1.83)"/><path class="cls-1" d="M187.57,17.81c0-.2,0-.2-.2-.2h-2a.2.2,0,0,1-.19-.07l-.68-.87c-.06-.07-.06-.11,0-.19a6.33,6.33,0,0,0,.73-1.23,11.67,11.67,0,0,0,.67-1.82.2.2,0,0,1,.07-.1h.82l.12,0h0c.05,0,.06-.08.06-.17,0-.52,0-1,0-1.56,0-.2,0-.2-.21-.2h-2v0h-.17c-.15,0-.21,0-.24.19a10.85,10.85,0,0,1-.76,2.55c-.12.26-.25.51-.39.79l-.42-.57-2.56-3.47c-.12-.16-.12-.16.07-.24A7.47,7.47,0,0,0,182,9.76a3,3,0,0,0,1.31-3,3.14,3.14,0,0,0-2-2.53,4.11,4.11,0,0,0-2.14-.34A3.75,3.75,0,0,0,176.81,5a3.2,3.2,0,0,0-.87,3.11,4.6,4.6,0,0,0,.85,1.75c.07.1.05.14,0,.18s-.33.16-.48.25A5.87,5.87,0,0,0,174.19,12a4.5,4.5,0,0,0-.74,3.36,4.81,4.81,0,0,0,2,3.35,5.77,5.77,0,0,0,4.75.93,6.75,6.75,0,0,0,2.64-1.34c.12-.09.17-.08.25,0l.81,1.09a.29.29,0,0,0,.24.12h3.22c.16,0,.19,0,.19-.2C187.56,18.84,187.57,18.33,187.57,17.81ZM178.39,6.64a1.36,1.36,0,0,1,.9-.48,1.1,1.1,0,0,1,.36,0,1.61,1.61,0,0,1,1.15.41,1.37,1.37,0,0,1,.14,1.67,2.87,2.87,0,0,1-1.07.85c-.25.14-.52.26-.78.39-.05,0-.11.05-.15,0a5.77,5.77,0,0,1-.79-1.49A1.44,1.44,0,0,1,178.39,6.64ZM182,16.89A4.86,4.86,0,0,1,180,18a3.56,3.56,0,0,1-1,.21,3.39,3.39,0,0,1-2.15-.67,3.69,3.69,0,0,1-1.44-1.9,2.45,2.45,0,0,1-.11-.76,2.78,2.78,0,0,1,1.24-2.33,10.86,10.86,0,0,1,1.53-.85c.11-.06.14,0,.19.08l1.57,2.07L182,16.67C182,16.76,182,16.81,182,16.89Z" transform="translate(-5 -1.83)"/><path class="cls-1" d="M59.31,61.1A25.18,25.18,0,0,0,36.72,75.25a6.24,6.24,0,0,0-.91-.54,7.7,7.7,0,0,0-4.05-.65,7.11,7.11,0,0,0-4.47,2A6.08,6.08,0,0,0,25.64,82a8.73,8.73,0,0,0,1.61,3.31c.14.19.09.26-.1.35s-.61.29-.91.46a11.2,11.2,0,0,0-3.9,3.27,8.41,8.41,0,0,0-1.4,6.34A9.06,9.06,0,0,0,24.75,102a10.91,10.91,0,0,0,9,1.75,12.65,12.65,0,0,0,5-2.54.35.35,0,0,1,.25-.1c.39.53.81,1,1.24,1.54.17.23.53.55.83.89a24.58,24.58,0,0,0,3.87,3.32,25.17,25.17,0,1,0,14.4-45.8Zm6.07,5.24a1.37,1.37,0,0,1,.13-.51c5.78.79,14.43,9.87,14.35,15-2.48-.87-2.78-.65-3,2.11-.07.75-.2,1.48-.31,2.28-.58-.07-.76-.55-1.05-.85-.84-.92-1.66-1.86-2.48-2.8a1.47,1.47,0,0,0-2.27-.27l-4.12,3.2a1.48,1.48,0,0,0-.34,2.19c.36.57.72,1.15,1.1,1.73-.95,2.15-3.12,3.46-3.72,5.78s-1.16,4.37-1.75,6.59l-3.73,1.9c-1-1.41-2.28-2.57-2.58-4.36s-.68-3.33-1-5a2,2,0,0,0-1.49-1.67c-1.3-.36-2.57-.86-3.88-1.22a1.78,1.78,0,0,1-1.36-1.33c-.3-1-.71-2-1.11-3.06A28.79,28.79,0,0,1,49.08,83a2.87,2.87,0,0,1,1.46-.19c3.36,0,6.72,0,10.08,0a1.85,1.85,0,0,0,2-1.21,3,3,0,0,1,.2-.4c1.13-2.27,1.1-2.36-1-3.8-1.12-.76-2.31-1.45-3.35-2.31a3.73,3.73,0,0,0-3.8-.57c-1,.31-2.12.5-3.26.77a4.77,4.77,0,0,1,0-2,8,8,0,0,1,3.09-1c1.46-.33,2.51-.88,2.24-2.64a13.33,13.33,0,0,1,3-1A5.88,5.88,0,0,1,61,70c.89.92,1.43.93,2.44.14C64.66,69.15,65.69,68.1,65.38,66.34Zm-12.69-.8.71-.2.47-.12c.51-.12,1-.22,1.55-.31a17.39,17.39,0,0,1,7,.1,4,4,0,0,1,.07,2.19c-.58.13-.75-.35-1-.64a1.85,1.85,0,0,0-2.21-.67l-4.19,1.39c-1.07.34-1,1.26-1.13,2.19a14,14,0,0,1-3.63,1.12c-1.48.45-1.7.66-1.73,2.19,0,1.1-.07,2.19-.12,3.29-.08,2,.53,2.52,2.52,2l5.15-1.25,4.22,2.86c-.39.6-.85.43-1.24.43-3.28,0-6.57,0-9.86,0a2.51,2.51,0,0,0-2.24,1c-.86,1.15-1.77,2.27-2.68,3.38a1.85,1.85,0,0,0-.33,2c.19.52.37,1.06.56,1.59H42.29v0H42c-.28,0-.4.08-.45.37a20.9,20.9,0,0,1-1.44,4.82c-.21.49-.47,1-.73,1.48-.28-.39-.54-.73-.79-1.07L33.7,87.21c-.22-.31-.22-.31.15-.45A13.85,13.85,0,0,0,37,85.09a5.62,5.62,0,0,0,2.47-5.61,6,6,0,0,0-.34-1.31A21.84,21.84,0,0,1,52.69,65.54Zm-22.52,13a2.59,2.59,0,0,1,1.74-.94,2.41,2.41,0,0,1,.71-.06,3.13,3.13,0,0,1,2.22.79,2.65,2.65,0,0,1,.27,3.23A5.69,5.69,0,0,1,33,83.28c-.49.26-1,.49-1.51.73-.11.06-.21.1-.29,0a10.64,10.64,0,0,1-1.53-2.88A2.74,2.74,0,0,1,30.17,78.59Zm6.9,19.83a9.46,9.46,0,0,1-3.8,2.12,7.84,7.84,0,0,1-2,.4,6.59,6.59,0,0,1-4.17-1.3A7,7,0,0,1,24.35,96a4.27,4.27,0,0,1-.21-1.46A5.37,5.37,0,0,1,26.53,90a21.87,21.87,0,0,1,3-1.64c.22-.11.28,0,.38.16l3,4,3.93,5.15c.11.21.22.42.34.62A.35.35,0,0,1,37.07,98.42Zm40.38-.13a1.4,1.4,0,0,0-.1.16,21.72,21.72,0,0,1-31.16,5.16s-.1-.07-.06-.06a16.16,16.16,0,0,1-4.34-5.4.25.25,0,0,1,0-.36,14,14,0,0,0,1.39-2.32A22.51,22.51,0,0,0,44.44,92a.34.34,0,0,1,.13-.2h1.51a2.15,2.15,0,0,0,1.17.79c1.59.46,3.15,1,4.69,1.51a27.16,27.16,0,0,1,.74,3.32,11.71,11.71,0,0,0,2.57,5.92c2.26,3,1.8,2.55,5,1.3a7.31,7.31,0,0,0,5.07-6.56c.34-3,2-5.23,3.78-7.44,1.55-1.87,1.5-1.91.25-4-.09-.16-.16-.33-.28-.59a13,13,0,0,1,2.5-2l3.55,4a17.9,17.9,0,0,0,1.38,1.5,1.26,1.26,0,0,0,2.22-.71,26.75,26.75,0,0,0,.36-2.69,8.09,8.09,0,0,1,.36-2c1.26.22,1.37,1.12,1.37,2a22.18,22.18,0,0,1-2.71,10.91C77.92,97.53,77.69,97.92,77.45,98.29Z" transform="translate(-5 -1.83)"/><text class="cls-2" transform="translate(10.95 26.48)">PU<tspan class="cls-3" x="38.45" y="0">R</tspan><tspan x="57.73" y="0">E</tspan></text><text class="cls-4" transform="translate(0 44.77)">n<tspan class="cls-5" x="16.56" y="0">a</tspan><tspan class="cls-6" x="33.94" y="0">t</tspan><tspan class="cls-7" x="46.86" y="0">u</tspan><tspan class="cls-8" x="63.45" y="0">r</tspan><tspan class="cls-9" x="75.62" y="0">a</tspan><tspan x="93.04" y="0">l</tspan></text></svg>